<?xml version="1.0" encoding="UTF-8"?>
<svg id="Layer_2" data-name="Layer 2" xmlns="http://www.w3.org/2000/svg" viewBox="0 0 1500 500">
  <defs>
    <style>
      .cls-1 {
        fill: #ea8b18;
      }

      .cls-2 {
        fill: #fffcf9;
      }
    </style>
  </defs>
  <g>
    <path class="cls-2" d="M533.07,274.61v118.1h-59.82v-108.9c0-33.36-14.95-48.69-39.11-48.69-26.84,0-45.63,17.25-45.63,54.06v103.53h-59.81v-108.9c0-33.36-14.19-48.69-39.11-48.69-26.46,0-45.24,17.25-45.24,54.06v103.53h-59.82v-206.29h57.13v23.77c15.34-17.64,38.34-26.84,64.8-26.84,28.76,0,53.3,11.12,67.87,33.74,16.49-21.09,43.33-33.74,74.39-33.74,49.08,0,84.36,28.37,84.36,91.26Z"/>
    <path class="cls-2" d="M1315.47,274.61v118.1h-59.82v-108.9c0-33.36-14.95-48.69-39.11-48.69-26.84,0-45.63,17.25-45.63,54.06v103.53h-59.81v-108.9c0-33.36-14.19-48.69-39.11-48.69-26.46,0-45.24,17.25-45.24,54.06v103.53h-59.82v-206.29h57.13v23.77c15.34-17.64,38.34-26.84,64.8-26.84,28.76,0,53.3,11.12,67.87,33.74,16.49-21.09,43.33-33.74,74.39-33.74,49.08,0,84.36,28.37,84.36,91.26Z"/>
    <path class="cls-1" d="M873.84,392.7h-247.69v-19.17l110.81-234.66h32.59l104.29,234.66v19.17ZM737.73,186.04l-77.45,170.24h148.38l-69.4-170.24h-1.53Z"/>
  </g>
  <path class="cls-1" d="M859.7,170.45c-6.11,0-11.56-1.29-16.34-3.89-4.78-2.59-8.57-6.24-11.36-10.96-2.79-4.71-4.18-10.39-4.18-17.03s1.46-11.92,4.38-16.64c2.92-4.71,6.81-8.33,11.65-10.86,4.85-2.52,10.26-3.78,16.24-3.78s10.92,1.29,15.64,3.89c4.71,2.59,8.47,6.24,11.26,10.96,2.79,4.72,4.18,10.26,4.18,16.64s-1.39,12.29-4.18,16.94c-2.79,4.65-6.57,8.27-11.36,10.86-4.78,2.59-10.1,3.89-15.94,3.89ZM859.7,158.5c5.31,0,9.6-1.83,12.85-5.48,3.25-3.65,4.88-8.47,4.88-14.44s-1.69-10.69-5.08-14.15c-3.39-3.45-7.74-5.18-13.05-5.18s-9.6,1.76-12.85,5.28c-3.26,3.52-4.88,8.27-4.88,14.25s1.66,10.59,4.98,14.25c3.32,3.65,7.7,5.48,13.15,5.48Z"/>
</svg>